# xmcd
#
# Track frame offsets:
#	150
#	21753
#	42806
#	61011
#	83356
#	98721
#	117749
#	134761
#	154411
#	170114
#	187526
#	204913
#	223884
#	242722
#	260468
#
# Disc length: 3740 seconds
#
# Revision: 1
# Processed by: cddbd v1.4PL0 Copyright (c) Steve Scherf et al.
# Submitted via: audiograbber 1.82.01
#
DISCID=cc0e9a0f
DTITLE=Анжелика Варум - Любовное Настроение
DYEAR=1900
DGENRE=Pop
TTITLE0=Другая женщина
TTITLE1=Зимняя вишня
TTITLE2=Четыре шага в облака
TTITLE3=Просто танец
TTITLE4=Колыбельная
TTITLE5=Февраль
TTITLE6=Дождик
TTITLE7=Дождливое такси
TTITLE8=Непогода
TTITLE9=Состояние жизни
TTITLE10=Танго
TTITLE11=Маэстро
TTITLE12=Очаровашка
TTITLE13=Осенний джаз
TTITLE14=Прощай
EXTD=
EXTT0=
EXTT1=
EXTT2=
EXTT3=
EXTT4=
EXTT5=
EXTT6=
EXTT7=
EXTT8=
EXTT9=
EXTT10=
EXTT11=
EXTT12=
EXTT13=
EXTT14=
PLAYORDER=
